<svg width="161" height="57" viewBox="0 0 161 57" fill="none" xmlns="http://www.w3.org/2000/svg">
<path d="M0 0.47876H161V56.0351H0V0.47876Z" fill="#E97F39"/>
<path d="M6.91966 39.6558V38.5775C7.50251 38.5386 7.94936 38.4901 8.26022 38.4318C8.5905 38.3735 8.88193 38.2472 9.1345 38.0529C9.40649 37.8586 9.54249 37.5866 9.54249 37.2369C9.54249 30.5147 9.47449 24.8999 9.33849 20.3925C9.31907 19.9651 9.16364 19.6834 8.87221 19.5474C8.60021 19.392 8.08536 19.2948 7.32766 19.256L6.91966 19.2268V18.1485C7.96879 18.2262 9.33849 18.2651 11.0288 18.2651C12.719 18.2651 14.0596 18.2165 15.0504 18.1194C16.0413 18.0222 16.6339 17.9737 16.8281 17.9737H17.411C18.4213 17.9737 19.3053 18.1 20.063 18.3525C20.8401 18.6051 21.4327 18.9062 21.8407 19.256C22.2681 19.6057 22.6081 20.0234 22.8607 20.5091C23.2686 21.2862 23.4726 22.1896 23.4726 23.2193C23.4726 25.1816 22.3944 26.6873 20.2378 27.7364L19.3635 28.1736C22.6081 29.2616 24.2304 31.0198 24.2304 33.4484C24.2304 35.1775 23.5212 36.6735 22.1029 37.9363C20.6847 39.1992 19.0721 39.8306 17.2653 39.8306H16.6533C16.0899 39.8306 15.3224 39.7918 14.351 39.714L13.4185 39.6558C12.3693 39.578 11.2813 39.5392 10.1545 39.5392C9.04707 39.5392 7.96879 39.578 6.91966 39.6558ZM12.3985 35.5758C12.3985 36.6638 12.7287 37.3438 13.3893 37.6158C14.0499 37.8878 15.4779 38.0238 17.6733 38.0238C18.4893 38.0238 19.2664 37.6158 20.0047 36.7998C20.7624 35.9838 21.1412 34.8764 21.1412 33.4775C21.1412 32.0593 20.6847 30.9713 19.7715 30.2136C18.8584 29.4364 17.5858 29.0479 15.9539 29.0479C14.3413 29.0479 13.1756 29.1061 12.4568 29.2227C12.4179 31.4376 12.3985 33.5552 12.3985 35.5758ZM12.4568 27.8239C13.7196 27.7073 14.7299 27.649 15.4876 27.649C16.2453 27.649 16.8573 27.6684 17.3236 27.7073C18.3727 27.3964 19.1304 26.8622 19.5967 26.1045C20.063 25.3468 20.2961 24.5502 20.2961 23.7148C20.2961 22.8599 20.1504 22.1411 19.859 21.5582C19.5675 20.9559 19.2275 20.5188 18.839 20.2468C18.0424 19.6834 17.4498 19.4017 17.0613 19.4017C14.9242 19.4017 13.5447 19.5182 12.923 19.7514L12.5733 20.0719C12.515 22.8113 12.4762 25.3953 12.4568 27.8239ZM28.1767 37.9363C27.7687 37.3729 27.4287 36.5958 27.1567 35.6049C26.8847 34.5947 26.7487 33.3318 26.7487 31.8164C26.7487 30.2816 27.147 28.8633 27.9435 27.5616C28.4681 26.7456 29.3812 26.0073 30.6829 25.3468C31.9846 24.6668 33.0629 24.3268 33.9178 24.3268C35.6469 24.3268 37.1234 24.8805 38.3474 25.9879C39.5714 27.0953 40.1834 28.8244 40.1834 31.1753C40.1834 33.5067 39.756 35.3232 38.9011 36.6249C37.7549 38.1598 36.6377 39.1701 35.5497 39.6558C34.8115 39.986 34.044 40.1512 33.2475 40.1512C32.4509 40.1512 31.8001 40.0929 31.2949 39.9763C30.7898 39.8792 30.2458 39.6558 29.6629 39.3061C29.0995 38.9563 28.6041 38.4998 28.1767 37.9363ZM29.5172 32.1953C29.5172 34.2935 29.9155 35.7992 30.7121 36.7124C31.5281 37.6255 32.7035 38.0821 34.2383 38.0821C34.8212 38.0821 35.2486 38.0335 35.5206 37.9363C36.8612 37.4118 37.5314 35.3912 37.5314 31.8747C37.5314 30.2233 37.308 29.0187 36.8612 28.261C36.4337 27.4839 35.6857 26.9302 34.6172 26.5999C34.0732 26.4639 33.5778 26.3959 33.1309 26.3959C32.6841 26.3959 32.3538 26.4056 32.1401 26.425C31.9458 26.4445 31.6835 26.5027 31.3532 26.5999C31.0229 26.697 30.7704 26.8622 30.5955 27.0953C30.4206 27.309 30.2361 27.6102 30.0418 27.9987C29.6921 28.6981 29.5172 30.097 29.5172 32.1953ZM44.1061 37.9363C43.6981 37.3729 43.3581 36.5958 43.0861 35.6049C42.8141 34.5947 42.6781 33.3318 42.6781 31.8164C42.6781 30.2816 43.0763 28.8633 43.8729 27.5616C44.3975 26.7456 45.3106 26.0073 46.6123 25.3468C47.914 24.6668 48.9923 24.3268 49.8471 24.3268C51.5763 24.3268 53.0528 24.8805 54.2768 25.9879C55.5008 27.0953 56.1128 28.8244 56.1128 31.1753C56.1128 33.5067 55.6854 35.3232 54.8305 36.6249C53.6842 38.1598 52.5671 39.1701 51.4791 39.6558C50.7408 39.986 49.9734 40.1512 49.1769 40.1512C48.3803 40.1512 47.7294 40.0929 47.2243 39.9763C46.7192 39.8792 46.1752 39.6558 45.5923 39.3061C45.0289 38.9563 44.5335 38.4998 44.1061 37.9363ZM45.4466 32.1953C45.4466 34.2935 45.8449 35.7992 46.6415 36.7124C47.4574 37.6255 48.6329 38.0821 50.1677 38.0821C50.7506 38.0821 51.178 38.0335 51.45 37.9363C52.7905 37.4118 53.4608 35.3912 53.4608 31.8747C53.4608 30.2233 53.2374 29.0187 52.7905 28.261C52.3631 27.4839 51.6151 26.9302 50.5466 26.5999C50.0026 26.4639 49.5071 26.3959 49.0603 26.3959C48.6134 26.3959 48.2832 26.4056 48.0694 26.425C47.8752 26.4445 47.6129 26.5027 47.2826 26.5999C46.9523 26.697 46.6997 26.8622 46.5249 27.0953C46.35 27.309 46.1655 27.6102 45.9712 27.9987C45.6215 28.6981 45.4466 30.097 45.4466 32.1953ZM60.6766 35.4301L60.7349 24.1519C60.7349 21.8788 60.6766 20.4799 60.56 19.9554C60.4629 19.4114 60.3851 19.0422 60.3269 18.848C60.288 18.6342 60.1423 18.4691 59.8897 18.3525C59.6372 18.2165 59.4429 18.1485 59.3069 18.1485C59.1903 18.1291 58.9086 18.1097 58.4617 18.0902L58.4034 17.1285C59.88 16.9925 60.9583 16.8468 61.6383 16.6914C62.3183 16.5165 62.6874 16.4291 62.7457 16.4291C63.0954 16.4291 63.2703 16.5748 63.2703 16.8663V18.1194L63.2411 31.0587C63.9017 31.0587 64.8342 30.4273 66.0388 29.1644C67.2434 27.9016 67.8456 26.9399 67.8456 26.2793C67.8456 25.949 67.6416 25.7839 67.2337 25.7839C67.0588 25.7839 66.9228 25.7353 66.8257 25.6382C66.7285 25.5216 66.6799 25.3953 66.6799 25.2593C66.6799 24.9679 66.8645 24.8125 67.2337 24.793C67.8942 24.8513 68.8268 24.8805 70.0313 24.8805C71.2359 24.8805 72.1685 24.8513 72.829 24.793C73.1787 24.793 73.3536 24.9485 73.3536 25.2593C73.3536 25.4925 73.2467 25.6479 73.033 25.7256C72.7999 25.8227 72.6542 25.8713 72.5959 25.8713C71.8188 26.1822 70.8959 26.7553 69.8273 27.5907C68.7588 28.4067 67.8845 29.1547 67.2045 29.8347L66.1845 30.8547L74.1404 38.7815C74.3736 39.0146 74.4902 39.2089 74.4902 39.3643C74.4902 39.5003 74.4027 39.5975 74.2279 39.6558H74.1404C72.6639 39.6558 71.469 39.6946 70.5559 39.7723C67.6222 36.2947 65.864 34.2547 65.2811 33.6524C64.7177 33.0307 64.1931 32.6421 63.7074 32.4867C63.4937 32.409 63.3188 32.341 63.1828 32.2827C63.2023 32.5547 63.212 32.9044 63.212 33.3318L63.1537 36.8289V37.3244C63.1537 37.4409 63.1634 37.5575 63.1828 37.6741C63.2217 37.7906 63.2411 37.8878 63.2411 37.9655C63.2605 38.0238 63.3091 38.0918 63.3868 38.1695C63.4645 38.2278 63.5131 38.2763 63.5325 38.3152C63.5714 38.3346 63.6588 38.3638 63.7948 38.4026C63.9308 38.4415 64.028 38.4706 64.0863 38.4901C64.1445 38.4901 64.2708 38.5192 64.4651 38.5775C64.6788 38.6163 64.844 38.6455 64.9605 38.6649V39.6558H58.6657V38.6649C59.2097 38.5483 59.5109 38.4803 59.5692 38.4609C59.6274 38.4415 59.7343 38.4123 59.8897 38.3735C60.0451 38.3346 60.1326 38.2958 60.152 38.2569C60.1909 38.1986 60.2589 38.1306 60.356 38.0529C60.4531 37.9752 60.5017 37.8878 60.5017 37.7906L60.6474 36.9164L60.6766 35.4301Z" fill="#0B0B0B"/>
<path d="M75.3701 18.4691L75.6907 18.1485H92.7682L93.0888 18.4691C92.9917 20.1205 92.9431 22.0342 92.9431 24.2102H91.9231C91.418 22.3839 91.0877 21.3154 90.9323 21.0045C90.8546 20.7714 90.7671 20.5577 90.67 20.3634C90.534 20.2274 90.3591 20.1399 90.1454 20.1011C89.1351 19.9068 88.29 19.8097 87.61 19.8097C86.93 19.8097 86.3472 19.8582 85.8615 19.9554C85.706 23.6273 85.6283 29.3879 85.6283 37.2369C85.6283 37.5866 85.8032 37.8683 86.1529 38.0821C86.522 38.2763 86.8912 38.4026 87.2603 38.4609C87.6294 38.5192 88.1346 38.5775 88.7757 38.6358V39.6558H79.4501V38.6358C81.0044 38.4998 81.9563 38.2569 82.3061 37.9072C82.4809 37.7324 82.5683 37.5089 82.5683 37.2369C82.6266 33.4678 82.6558 29.9416 82.6558 26.6582C82.6558 23.3553 82.6363 21.1211 82.5975 19.9554C82.1118 19.8582 81.5289 19.8097 80.8489 19.8097C80.1689 19.8097 79.3238 19.9068 78.3135 20.1011C78.0998 20.1399 77.925 20.2274 77.789 20.3634C77.6918 20.5577 77.6044 20.7714 77.5267 21.0045C77.3712 21.3154 77.041 22.3839 76.5358 24.2102H75.5158C75.5158 22.0342 75.4673 20.1205 75.3701 18.4691ZM104.617 28.2319L104.501 35.9255C104.501 36.4112 104.715 37.0038 105.142 37.7032C105.589 38.3832 105.812 38.7815 105.812 38.8981C105.812 38.9952 105.725 39.0729 105.55 39.1312C104.19 39.578 103.423 39.8015 103.248 39.8015C103.092 39.8015 102.927 39.6655 102.752 39.3935C102.597 39.1021 102.451 38.7523 102.315 38.3443C102.179 37.9363 102.101 37.7226 102.082 37.7032C101.791 37.8975 101.431 38.1403 101.004 38.4318C100.576 38.7232 100.275 38.9272 100.1 39.0438C99.9449 39.1409 99.7118 39.2672 99.4009 39.4226C99.1095 39.578 98.8472 39.6849 98.6141 39.7432C98.0701 39.8792 97.3318 39.9472 96.3992 39.9472C95.4861 39.9472 94.8061 39.578 94.3593 38.8398C93.9124 38.1015 93.689 37.2952 93.689 36.4209C93.689 35.5467 93.757 34.8472 93.893 34.3227C94.029 33.7981 94.2524 33.361 94.5633 33.0113C94.8741 32.6615 95.185 32.3701 95.4958 32.137C95.8067 31.9038 96.2438 31.7096 96.8072 31.5541C97.3901 31.3793 97.8855 31.253 98.2935 31.1753C98.7209 31.0781 99.3135 30.9616 100.071 30.8256C100.829 30.6701 101.441 30.5438 101.907 30.4467L101.936 28.6981C101.936 27.8044 101.616 27.1633 100.975 26.7747C100.333 26.3862 99.5563 26.1919 98.6432 26.1919C97.7495 26.1919 97.1278 26.425 96.7781 26.8913C96.4284 27.3382 96.0495 28.3096 95.6415 29.8056L94.4467 29.689C94.4467 27.9987 94.7381 26.8136 95.321 26.1336C96.0204 25.3176 96.7781 24.8125 97.5941 24.6182C98.4101 24.4239 99.2358 24.3268 100.071 24.3268C100.926 24.3268 101.655 24.4239 102.257 24.6182C102.859 24.8125 103.306 25.0359 103.597 25.2885C103.908 25.5216 104.141 25.8519 104.297 26.2793C104.472 26.6873 104.569 27.0176 104.588 27.2702C104.608 27.5227 104.617 27.8433 104.617 28.2319ZM96.3118 35.8381C96.3118 37.2758 96.9627 37.9946 98.2644 37.9946C99.4106 37.9946 100.567 37.5089 101.732 36.5375C101.868 36.4209 101.936 35.7118 101.936 34.4101C101.936 33.1084 101.927 32.1661 101.907 31.5833C101.557 31.6998 101.111 31.8455 100.567 32.0204C100.042 32.1953 99.6632 32.3215 99.4301 32.3993C99.2164 32.477 98.9249 32.5838 98.5558 32.7198C98.1866 32.8364 97.9341 32.9335 97.7981 33.0113C97.6815 33.089 97.5067 33.1861 97.2735 33.3027C97.0598 33.4192 96.9238 33.5358 96.8655 33.6524C96.8072 33.7495 96.7198 33.8758 96.6032 34.0312C96.4867 34.1672 96.4187 34.3324 96.3992 34.5267C96.3409 35.0707 96.3118 35.5078 96.3118 35.8381ZM111.54 22.0245C111.229 22.0245 110.879 21.7914 110.491 21.3251C110.102 20.8394 109.908 20.4897 109.908 20.2759C109.908 20.0428 110.063 19.6348 110.374 19.052C110.705 18.4691 111.045 18.1777 111.394 18.1777C111.744 18.1777 112.133 18.3622 112.56 18.7314C112.987 19.0811 113.201 19.4891 113.201 19.9554C113.201 20.4217 112.997 20.8879 112.589 21.3542C112.201 21.8011 111.851 22.0245 111.54 22.0245ZM108.189 39.6558V38.6649C109.179 38.5872 109.801 38.4609 110.054 38.2861C110.306 38.0918 110.433 37.7032 110.433 37.1204V31.0587C110.433 29.3684 110.384 28.193 110.287 27.5324C110.209 26.8719 110.073 26.4542 109.879 26.2793C109.685 26.085 109.315 25.9879 108.771 25.9879H108.334L108.276 25.0262C109.714 24.8902 110.782 24.7445 111.482 24.589C112.201 24.4142 112.589 24.3268 112.647 24.3268C112.978 24.3268 113.143 24.4822 113.143 24.793C113.143 25.0262 113.133 25.6673 113.114 26.7165C113.036 30.8741 112.997 34.4587 112.997 37.4701C112.997 37.8586 113.153 38.1501 113.463 38.3443C113.774 38.5192 114.27 38.6261 114.95 38.6649V39.6558H108.189ZM117.171 39.6558V38.6649C117.326 38.6455 117.53 38.6163 117.783 38.5775C118.036 38.5192 118.201 38.4901 118.278 38.4901C118.356 38.4706 118.473 38.4318 118.628 38.3735C118.803 38.3152 118.91 38.2666 118.949 38.2278C118.988 38.1889 119.056 38.1112 119.153 37.9946C119.25 37.8781 119.298 37.7615 119.298 37.6449C119.318 37.5284 119.347 37.3729 119.386 37.1786C119.425 36.9649 119.444 36.7415 119.444 36.5084V30.2427C119.444 28.2416 119.415 25.0456 119.357 20.6548L119.328 19.256C119.308 18.7702 119.192 18.4594 118.978 18.3234C118.764 18.1874 118.337 18.1194 117.696 18.1194H117.317L117.258 17.1577C118.696 16.9828 119.765 16.8177 120.464 16.6623C121.164 16.4874 121.552 16.4 121.63 16.4C121.96 16.4 122.125 16.5457 122.125 16.8371C122.164 18.4302 122.184 20.4217 122.184 22.8113C122.184 25.201 122.135 27.7559 122.038 30.4758C121.941 33.1764 121.892 35.3135 121.892 36.8872C121.892 37.6255 121.999 38.0821 122.213 38.2569C122.446 38.4123 123.058 38.5483 124.049 38.6649V39.6558H117.171ZM127.872 37.9363C127.464 37.3729 127.124 36.5958 126.852 35.6049C126.58 34.5947 126.444 33.3318 126.444 31.8164C126.444 30.2816 126.842 28.8633 127.638 27.5616C128.163 26.7456 129.076 26.0073 130.378 25.3468C131.68 24.6668 132.758 24.3268 133.613 24.3268C135.342 24.3268 136.818 24.8805 138.042 25.9879C139.266 27.0953 139.878 28.8244 139.878 31.1753C139.878 33.5067 139.451 35.3232 138.596 36.6249C137.45 38.1598 136.333 39.1701 135.245 39.6558C134.506 39.986 133.739 40.1512 132.942 40.1512C132.146 40.1512 131.495 40.0929 130.99 39.9763C130.485 39.8792 129.941 39.6558 129.358 39.3061C128.794 38.9563 128.299 38.4998 127.872 37.9363ZM129.212 32.1953C129.212 34.2935 129.61 35.7992 130.407 36.7124C131.223 37.6255 132.398 38.0821 133.933 38.0821C134.516 38.0821 134.944 38.0335 135.216 37.9363C136.556 37.4118 137.226 35.3912 137.226 31.8747C137.226 30.2233 137.003 29.0187 136.556 28.261C136.129 27.4839 135.381 26.9302 134.312 26.5999C133.768 26.4639 133.273 26.3959 132.826 26.3959C132.379 26.3959 132.049 26.4056 131.835 26.425C131.641 26.4445 131.378 26.5027 131.048 26.5999C130.718 26.697 130.465 26.8622 130.29 27.0953C130.116 27.309 129.931 27.6102 129.737 27.9987C129.387 28.6981 129.212 30.097 129.212 32.1953ZM147.152 29.1061L147.123 37.0038C147.123 37.6061 147.298 38.0043 147.648 38.1986C147.998 38.3735 148.522 38.5095 149.222 38.6066C149.94 38.7038 150.329 38.7523 150.387 38.7523V39.6558H142.227V38.6649C142.694 38.6066 143.004 38.5775 143.16 38.5775C143.315 38.5581 143.51 38.4998 143.743 38.4026C143.995 38.2861 144.141 38.1889 144.18 38.1112C144.219 38.0141 144.277 37.8198 144.355 37.5284C144.432 37.2369 144.471 36.9455 144.471 36.6541V34.3518C144.471 30.4467 144.403 28.1542 144.267 27.4742C144.112 26.7165 143.548 26.3376 142.577 26.3376L142.519 25.2302C143.296 25.1525 144.092 24.9679 144.908 24.6765C145.724 24.385 146.249 24.2393 146.482 24.2393C146.715 24.2393 146.88 24.3559 146.978 24.589C147.075 24.8028 147.123 25.201 147.123 25.7839L147.152 26.8913C148.862 25.2399 150.212 24.4142 151.203 24.4142C151.922 24.4142 152.418 24.5016 152.69 24.6765C152.961 24.8513 153.097 25.1719 153.097 25.6382C153.097 25.7936 152.942 26.8427 152.631 28.7856H151.582C151.485 27.3284 150.99 26.5999 150.096 26.5999C149.591 26.5999 148.969 26.833 148.231 27.2993C147.512 27.7462 147.152 28.3484 147.152 29.1061Z" fill="white"/>
</svg>
