<svg width="161" height="57" viewBox="0 0 161 57" fill="none" xmlns="http://www.w3.org/2000/svg">
<g clip-path="url(#clip0_135_2970)">
<path d="M0 0.47876H161V56.0351H0V0.47876Z" fill="#EAAC00"/>
<path d="M6.91992 39.6559V38.5776C7.50277 38.5387 7.94962 38.4902 8.26048 38.4319C8.59076 38.3736 8.88219 38.2473 9.13476 38.053C9.40675 37.8587 9.54275 37.5867 9.54275 37.237C9.54275 30.5148 9.47475 24.9 9.33875 20.3926C9.31933 19.9652 9.1639 19.6835 8.87247 19.5475C8.60047 19.3921 8.08562 19.2949 7.32792 19.2561L6.91992 19.2269V18.1486C7.96905 18.2263 9.33875 18.2652 11.0291 18.2652C12.7193 18.2652 14.0599 18.2166 15.0507 18.1195C16.0416 18.0223 16.6342 17.9738 16.8284 17.9738H17.4113C18.4216 17.9738 19.3056 18.1001 20.0633 18.3526C20.8404 18.6052 21.433 18.9063 21.841 19.2561C22.2684 19.6058 22.6084 20.0235 22.861 20.5092C23.2689 21.2863 23.4729 22.1897 23.4729 23.2194C23.4729 25.1817 22.3947 26.6874 20.2381 27.7365L19.3638 28.1737C22.6084 29.2617 24.2307 31.0199 24.2307 33.4485C24.2307 35.1776 23.5215 36.6736 22.1032 37.9364C20.685 39.1993 19.0724 39.8307 17.2656 39.8307H16.6536C16.0902 39.8307 15.3227 39.7919 14.3513 39.7141L13.4188 39.6559C12.3696 39.5781 11.2816 39.5393 10.1548 39.5393C9.04733 39.5393 7.96905 39.5781 6.91992 39.6559ZM12.3988 35.5759C12.3988 36.6639 12.729 37.3439 13.3896 37.6159C14.0502 37.8879 15.4782 38.0239 17.6736 38.0239C18.4896 38.0239 19.2667 37.6159 20.005 36.7999C20.7627 35.9839 21.1415 34.8765 21.1415 33.4776C21.1415 32.0594 20.685 30.9714 19.7718 30.2137C18.8587 29.4365 17.5861 29.048 15.9542 29.048C14.3416 29.048 13.1759 29.1062 12.4571 29.2228C12.4182 31.4377 12.3988 33.5553 12.3988 35.5759ZM12.4571 27.824C13.7199 27.7074 14.7302 27.6491 15.4879 27.6491C16.2456 27.6491 16.8576 27.6685 17.3239 27.7074C18.373 27.3965 19.1307 26.8623 19.597 26.1046C20.0633 25.3469 20.2964 24.5503 20.2964 23.7149C20.2964 22.86 20.1507 22.1412 19.8593 21.5583C19.5678 20.956 19.2278 20.5189 18.8393 20.2469C18.0427 19.6835 17.4501 19.4018 17.0616 19.4018C14.9245 19.4018 13.545 19.5183 12.9233 19.7515L12.5736 20.072C12.5153 22.8114 12.4765 25.3954 12.4571 27.824ZM28.177 37.9364C27.769 37.373 27.429 36.5959 27.157 35.605C26.885 34.5948 26.749 33.3319 26.749 31.8165C26.749 30.2817 27.1473 28.8634 27.9438 27.5617C28.4684 26.7457 29.3815 26.0074 30.6832 25.3469C31.9849 24.6669 33.0632 24.3269 33.9181 24.3269C35.6472 24.3269 37.1237 24.8806 38.3477 25.988C39.5717 27.0954 40.1837 28.8245 40.1837 31.1754C40.1837 33.5068 39.7563 35.3233 38.9014 36.625C37.7552 38.1599 36.638 39.1702 35.55 39.6559C34.8118 39.9861 34.0443 40.1513 33.2478 40.1513C32.4512 40.1513 31.8004 40.093 31.2952 39.9764C30.7901 39.8793 30.2461 39.6559 29.6632 39.3062C29.0998 38.9564 28.6044 38.4999 28.177 37.9364ZM29.5175 32.1954C29.5175 34.2936 29.9158 35.7993 30.7124 36.7125C31.5284 37.6256 32.7038 38.0822 34.2386 38.0822C34.8215 38.0822 35.2489 38.0336 35.5209 37.9364C36.8615 37.4119 37.5317 35.3913 37.5317 31.8748C37.5317 30.2234 37.3083 29.0188 36.8615 28.2611C36.434 27.484 35.686 26.9303 34.6175 26.6C34.0735 26.464 33.5781 26.396 33.1312 26.396C32.6844 26.396 32.3541 26.4057 32.1404 26.4251C31.9461 26.4446 31.6838 26.5028 31.3535 26.6C31.0232 26.6971 30.7707 26.8623 30.5958 27.0954C30.4209 27.3091 30.2364 27.6103 30.0421 27.9988C29.6924 28.6982 29.5175 30.0971 29.5175 32.1954ZM44.1064 37.9364C43.6984 37.373 43.3584 36.5959 43.0864 35.605C42.8144 34.5948 42.6784 33.3319 42.6784 31.8165C42.6784 30.2817 43.0766 28.8634 43.8732 27.5617C44.3978 26.7457 45.3109 26.0074 46.6126 25.3469C47.9143 24.6669 48.9926 24.3269 49.8474 24.3269C51.5766 24.3269 53.0531 24.8806 54.2771 25.988C55.5011 27.0954 56.1131 28.8245 56.1131 31.1754C56.1131 33.5068 55.6857 35.3233 54.8308 36.625C53.6845 38.1599 52.5674 39.1702 51.4794 39.6559C50.7411 39.9861 49.9737 40.1513 49.1772 40.1513C48.3806 40.1513 47.7297 40.093 47.2246 39.9764C46.7195 39.8793 46.1755 39.6559 45.5926 39.3062C45.0292 38.9564 44.5338 38.4999 44.1064 37.9364ZM45.4469 32.1954C45.4469 34.2936 45.8452 35.7993 46.6418 36.7125C47.4577 37.6256 48.6332 38.0822 50.168 38.0822C50.7509 38.0822 51.1783 38.0336 51.4503 37.9364C52.7908 37.4119 53.4611 35.3913 53.4611 31.8748C53.4611 30.2234 53.2377 29.0188 52.7908 28.2611C52.3634 27.484 51.6154 26.9303 50.5469 26.6C50.0029 26.464 49.5074 26.396 49.0606 26.396C48.6137 26.396 48.2835 26.4057 48.0697 26.4251C47.8755 26.4446 47.6132 26.5028 47.2829 26.6C46.9526 26.6971 46.7 26.8623 46.5252 27.0954C46.3503 27.3091 46.1658 27.6103 45.9715 27.9988C45.6218 28.6982 45.4469 30.0971 45.4469 32.1954ZM60.6769 35.4302L60.7352 24.152C60.7352 21.8789 60.6769 20.48 60.5603 19.9555C60.4632 19.4115 60.3854 19.0423 60.3272 18.8481C60.2883 18.6343 60.1426 18.4692 59.89 18.3526C59.6375 18.2166 59.4432 18.1486 59.3072 18.1486C59.1906 18.1292 58.9089 18.1098 58.462 18.0903L58.4037 17.1286C59.8803 16.9926 60.9586 16.8469 61.6386 16.6915C62.3186 16.5166 62.6877 16.4292 62.746 16.4292C63.0957 16.4292 63.2706 16.5749 63.2706 16.8664V18.1195L63.2414 31.0588C63.902 31.0588 64.8345 30.4274 66.0391 29.1645C67.2437 27.9017 67.8459 26.94 67.8459 26.2794C67.8459 25.9491 67.6419 25.784 67.234 25.784C67.0591 25.784 66.9231 25.7354 66.826 25.6383C66.7288 25.5217 66.6802 25.3954 66.6802 25.2594C66.6802 24.968 66.8648 24.8126 67.234 24.7931C67.8945 24.8514 68.8271 24.8806 70.0316 24.8806C71.2362 24.8806 72.1688 24.8514 72.8293 24.7931C73.179 24.7931 73.3539 24.9486 73.3539 25.2594C73.3539 25.4926 73.247 25.648 73.0333 25.7257C72.8002 25.8228 72.6545 25.8714 72.5962 25.8714C71.8191 26.1823 70.8962 26.7554 69.8276 27.5908C68.7591 28.4068 67.8848 29.1548 67.2048 29.8348L66.1848 30.8548L74.1407 38.7816C74.3739 39.0147 74.4905 39.209 74.4905 39.3644C74.4905 39.5004 74.403 39.5976 74.2282 39.6559H74.1407C72.6642 39.6559 71.4693 39.6947 70.5562 39.7724C67.6225 36.2948 65.8643 34.2548 65.2814 33.6525C64.718 33.0308 64.1934 32.6422 63.7077 32.4868C63.494 32.4091 63.3191 32.3411 63.1831 32.2828C63.2026 32.5548 63.2123 32.9045 63.2123 33.3319L63.154 36.829V37.3245C63.154 37.441 63.1637 37.5576 63.1831 37.6742C63.222 37.7907 63.2414 37.8879 63.2414 37.9656C63.2608 38.0239 63.3094 38.0919 63.3871 38.1696C63.4648 38.2279 63.5134 38.2764 63.5328 38.3153C63.5717 38.3347 63.6591 38.3639 63.7951 38.4027C63.9311 38.4416 64.0283 38.4707 64.0866 38.4902C64.1448 38.4902 64.2711 38.5193 64.4654 38.5776C64.6791 38.6164 64.8443 38.6456 64.9608 38.665V39.6559H58.666V38.665C59.21 38.5484 59.5112 38.4804 59.5695 38.461C59.6277 38.4416 59.7346 38.4124 59.89 38.3736C60.0454 38.3347 60.1329 38.2959 60.1523 38.257C60.1912 38.1987 60.2592 38.1307 60.3563 38.053C60.4534 37.9753 60.502 37.8879 60.502 37.7907L60.6477 36.9165L60.6769 35.4302Z" fill="#0B0B0B"/>
<path d="M75.3701 18.469L75.6907 18.1484H92.7682L93.0888 18.469C92.9917 20.1204 92.9431 22.0341 92.9431 24.2101H91.9231C91.418 22.3838 91.0877 21.3153 90.9323 21.0044C90.8546 20.7713 90.7671 20.5576 90.67 20.3633C90.534 20.2273 90.3591 20.1398 90.1454 20.101C89.1351 19.9067 88.29 19.8096 87.61 19.8096C86.93 19.8096 86.3472 19.8581 85.8615 19.9553C85.706 23.6272 85.6283 29.3878 85.6283 37.2368C85.6283 37.5865 85.8032 37.8682 86.1529 38.082C86.522 38.2762 86.8912 38.4025 87.2603 38.4608C87.6294 38.5191 88.1346 38.5774 88.7757 38.6357V39.6557H79.4501V38.6357C81.0044 38.4997 81.9563 38.2568 82.3061 37.9071C82.4809 37.7323 82.5683 37.5088 82.5683 37.2368C82.6266 33.4677 82.6558 29.9415 82.6558 26.6581C82.6558 23.3552 82.6363 21.121 82.5975 19.9553C82.1118 19.8581 81.5289 19.8096 80.8489 19.8096C80.1689 19.8096 79.3238 19.9067 78.3135 20.101C78.0998 20.1398 77.925 20.2273 77.789 20.3633C77.6918 20.5576 77.6044 20.7713 77.5267 21.0044C77.3712 21.3153 77.041 22.3838 76.5358 24.2101H75.5158C75.5158 22.0341 75.4673 20.1204 75.3701 18.469ZM104.617 28.2318L104.501 35.9254C104.501 36.4111 104.715 37.0037 105.142 37.7031C105.589 38.3831 105.812 38.7814 105.812 38.898C105.812 38.9951 105.725 39.0728 105.55 39.1311C104.19 39.5779 103.423 39.8014 103.248 39.8014C103.092 39.8014 102.927 39.6654 102.752 39.3934C102.597 39.102 102.451 38.7522 102.315 38.3442C102.179 37.9362 102.101 37.7225 102.082 37.7031C101.791 37.8974 101.431 38.1402 101.004 38.4317C100.576 38.7231 100.275 38.9271 100.1 39.0437C99.9449 39.1408 99.7118 39.2671 99.4009 39.4225C99.1095 39.5779 98.8472 39.6848 98.6141 39.7431C98.0701 39.8791 97.3318 39.9471 96.3992 39.9471C95.4861 39.9471 94.8061 39.5779 94.3593 38.8397C93.9124 38.1014 93.689 37.2951 93.689 36.4208C93.689 35.5466 93.757 34.8471 93.893 34.3226C94.029 33.798 94.2524 33.3609 94.5633 33.0112C94.8741 32.6614 95.185 32.37 95.4958 32.1369C95.8067 31.9037 96.2438 31.7095 96.8072 31.554C97.3901 31.3792 97.8855 31.2529 98.2935 31.1752C98.7209 31.078 99.3135 30.9615 100.071 30.8255C100.829 30.67 101.441 30.5437 101.907 30.4466L101.936 28.698C101.936 27.8043 101.616 27.1632 100.975 26.7746C100.333 26.3861 99.5563 26.1918 98.6432 26.1918C97.7495 26.1918 97.1278 26.4249 96.7781 26.8912C96.4284 27.3381 96.0495 28.3095 95.6415 29.8055L94.4467 29.6889C94.4467 27.9986 94.7381 26.8135 95.321 26.1335C96.0204 25.3175 96.7781 24.8124 97.5941 24.6181C98.4101 24.4238 99.2358 24.3267 100.071 24.3267C100.926 24.3267 101.655 24.4238 102.257 24.6181C102.859 24.8124 103.306 25.0358 103.597 25.2884C103.908 25.5215 104.141 25.8518 104.297 26.2792C104.472 26.6872 104.569 27.0175 104.588 27.2701C104.608 27.5226 104.617 27.8432 104.617 28.2318ZM96.3118 35.838C96.3118 37.2757 96.9627 37.9945 98.2644 37.9945C99.4106 37.9945 100.567 37.5088 101.732 36.5374C101.868 36.4208 101.936 35.7117 101.936 34.41C101.936 33.1083 101.927 32.166 101.907 31.5832C101.557 31.6997 101.111 31.8454 100.567 32.0203C100.042 32.1952 99.6632 32.3214 99.4301 32.3992C99.2164 32.4769 98.9249 32.5837 98.5558 32.7197C98.1866 32.8363 97.9341 32.9334 97.7981 33.0112C97.6815 33.0889 97.5067 33.186 97.2735 33.3026C97.0598 33.4191 96.9238 33.5357 96.8655 33.6523C96.8072 33.7494 96.7198 33.8757 96.6032 34.0311C96.4867 34.1671 96.4187 34.3323 96.3992 34.5266C96.3409 35.0706 96.3118 35.5077 96.3118 35.838ZM111.54 22.0244C111.229 22.0244 110.879 21.7913 110.491 21.325C110.102 20.8393 109.908 20.4896 109.908 20.2758C109.908 20.0427 110.063 19.6347 110.374 19.0519C110.705 18.469 111.045 18.1776 111.394 18.1776C111.744 18.1776 112.133 18.3621 112.56 18.7313C112.987 19.081 113.201 19.489 113.201 19.9553C113.201 20.4216 112.997 20.8878 112.589 21.3541C112.201 21.801 111.851 22.0244 111.54 22.0244ZM108.189 39.6557V38.6648C109.179 38.5871 109.801 38.4608 110.054 38.286C110.306 38.0917 110.433 37.7031 110.433 37.1203V31.0586C110.433 29.3683 110.384 28.1929 110.287 27.5323C110.209 26.8718 110.073 26.4541 109.879 26.2792C109.685 26.0849 109.315 25.9878 108.771 25.9878H108.334L108.276 25.0261C109.714 24.8901 110.782 24.7444 111.482 24.5889C112.201 24.4141 112.589 24.3267 112.647 24.3267C112.978 24.3267 113.143 24.4821 113.143 24.7929C113.143 25.0261 113.133 25.6672 113.114 26.7164C113.036 30.874 112.997 34.4586 112.997 37.47C112.997 37.8585 113.153 38.15 113.463 38.3442C113.774 38.5191 114.27 38.626 114.95 38.6648V39.6557H108.189ZM117.171 39.6557V38.6648C117.326 38.6454 117.53 38.6162 117.783 38.5774C118.036 38.5191 118.201 38.49 118.278 38.49C118.356 38.4705 118.473 38.4317 118.628 38.3734C118.803 38.3151 118.91 38.2665 118.949 38.2277C118.988 38.1888 119.056 38.1111 119.153 37.9945C119.25 37.878 119.298 37.7614 119.298 37.6448C119.318 37.5283 119.347 37.3728 119.386 37.1785C119.425 36.9648 119.444 36.7414 119.444 36.5083V30.2426C119.444 28.2415 119.415 25.0455 119.357 20.6547L119.328 19.2559C119.308 18.7701 119.192 18.4593 118.978 18.3233C118.764 18.1873 118.337 18.1193 117.696 18.1193H117.317L117.258 17.1576C118.696 16.9827 119.765 16.8176 120.464 16.6622C121.164 16.4873 121.552 16.3999 121.63 16.3999C121.96 16.3999 122.125 16.5456 122.125 16.837C122.164 18.4301 122.184 20.4216 122.184 22.8112C122.184 25.2009 122.135 27.7558 122.038 30.4757C121.941 33.1763 121.892 35.3134 121.892 36.8871C121.892 37.6254 121.999 38.082 122.213 38.2568C122.446 38.4122 123.058 38.5482 124.049 38.6648V39.6557H117.171ZM127.872 37.9362C127.464 37.3728 127.124 36.5957 126.852 35.6048C126.58 34.5946 126.444 33.3317 126.444 31.8163C126.444 30.2815 126.842 28.8632 127.638 27.5615C128.163 26.7455 129.076 26.0072 130.378 25.3467C131.68 24.6667 132.758 24.3267 133.613 24.3267C135.342 24.3267 136.818 24.8804 138.042 25.9878C139.266 27.0952 139.878 28.8243 139.878 31.1752C139.878 33.5066 139.451 35.3231 138.596 36.6248C137.45 38.1597 136.333 39.17 135.245 39.6557C134.506 39.9859 133.739 40.1511 132.942 40.1511C132.146 40.1511 131.495 40.0928 130.99 39.9762C130.485 39.8791 129.941 39.6557 129.358 39.306C128.794 38.9562 128.299 38.4997 127.872 37.9362ZM129.212 32.1952C129.212 34.2934 129.61 35.7991 130.407 36.7123C131.223 37.6254 132.398 38.082 133.933 38.082C134.516 38.082 134.944 38.0334 135.216 37.9362C136.556 37.4117 137.226 35.3911 137.226 31.8746C137.226 30.2232 137.003 29.0186 136.556 28.2609C136.129 27.4838 135.381 26.9301 134.312 26.5998C133.768 26.4638 133.273 26.3958 132.826 26.3958C132.379 26.3958 132.049 26.4055 131.835 26.4249C131.641 26.4444 131.378 26.5026 131.048 26.5998C130.718 26.6969 130.465 26.8621 130.29 27.0952C130.116 27.3089 129.931 27.6101 129.737 27.9986C129.387 28.698 129.212 30.0969 129.212 32.1952ZM147.152 29.106L147.123 37.0037C147.123 37.606 147.298 38.0042 147.648 38.1985C147.998 38.3734 148.522 38.5094 149.222 38.6065C149.94 38.7037 150.329 38.7522 150.387 38.7522V39.6557H142.227V38.6648C142.694 38.6065 143.004 38.5774 143.16 38.5774C143.315 38.558 143.51 38.4997 143.743 38.4025C143.995 38.286 144.141 38.1888 144.18 38.1111C144.219 38.014 144.277 37.8197 144.355 37.5283C144.432 37.2368 144.471 36.9454 144.471 36.654V34.3517C144.471 30.4466 144.403 28.1541 144.267 27.4741C144.112 26.7164 143.548 26.3375 142.577 26.3375L142.519 25.2301C143.296 25.1524 144.092 24.9678 144.908 24.6764C145.724 24.3849 146.249 24.2392 146.482 24.2392C146.715 24.2392 146.88 24.3558 146.978 24.5889C147.075 24.8027 147.123 25.2009 147.123 25.7838L147.152 26.8912C148.862 25.2398 150.212 24.4141 151.203 24.4141C151.922 24.4141 152.418 24.5015 152.69 24.6764C152.961 24.8512 153.097 25.1718 153.097 25.6381C153.097 25.7935 152.942 26.8426 152.631 28.7855H151.582C151.485 27.3283 150.99 26.5998 150.096 26.5998C149.591 26.5998 148.969 26.8329 148.231 27.2992C147.512 27.7461 147.152 28.3483 147.152 29.106Z" fill="white"/>
</g>
<defs>
<clipPath id="clip0_135_2970">
<rect width="161" height="57" fill="white"/>
</clipPath>
</defs>
</svg>
