<svg width="89" height="22" viewBox="0 0 89 22" fill="none" xmlns="http://www.w3.org/2000/svg">
<mask id="mask0_0_629" style="mask-type:luminance" maskUnits="userSpaceOnUse" x="0" y="0" width="87" height="22">
<path d="M0.240234 0.240234H86.997V21.845H0.240234V0.240234Z" fill="white"/>
</mask>
<g mask="url(#mask0_0_629)">
<mask id="mask1_0_629" style="mask-type:luminance" maskUnits="userSpaceOnUse" x="0" y="0" width="87" height="22">
<path d="M86.9911 0.240234H0.234375V21.5412H86.9911V0.240234Z" fill="white"/>
</mask>
<g mask="url(#mask1_0_629)">
<path d="M23.0254 7.80225H31.8023V9.45636H28.3591V18.6722H26.4687V9.42261H23.0254V7.80225ZM31.431 10.7729H33.0514V12.292H33.0851C33.1526 12.0894 33.2539 11.8869 33.3889 11.6844C33.524 11.4818 33.7265 11.2793 33.9291 11.1442C34.1316 10.9754 34.3679 10.8404 34.6042 10.7391C34.8405 10.6379 35.1106 10.5704 35.3806 10.5704H35.7857C35.8532 10.5704 35.9545 10.6041 36.022 10.6041V12.2582C35.887 12.2245 35.7857 12.2245 35.6507 12.1907C35.5157 12.1907 35.4144 12.157 35.2794 12.157C34.9755 12.157 34.7055 12.2245 34.4692 12.3257C34.1991 12.427 33.9966 12.6296 33.794 12.8321C33.5915 13.0684 33.4565 13.3385 33.3214 13.676C33.2201 14.0136 33.1526 14.385 33.1526 14.8238V18.5709H31.431V10.7729ZM43.9888 18.6384H42.3009V17.5582H42.2672C42.0646 17.9632 41.727 18.2671 41.3219 18.5034C40.9169 18.7397 40.478 18.8747 40.0392 18.8747C38.9927 18.8747 38.25 18.6384 37.8112 18.0983C37.3386 17.5919 37.136 16.8155 37.136 15.769V10.7729H38.8576V15.6002C38.8576 16.2754 38.9927 16.7817 39.2627 17.0518C39.5328 17.3219 39.9041 17.4906 40.3767 17.4906C40.7481 17.4906 41.0519 17.4231 41.2882 17.3219C41.5245 17.2206 41.727 17.0518 41.8621 16.883C42.0309 16.7142 42.1321 16.4779 42.1996 16.2079C42.2672 15.9378 42.3009 15.6677 42.3009 15.3639V10.8067H44.0225V18.6384H43.9888ZM46.9594 16.1066C47.027 16.6129 47.1957 16.9505 47.5333 17.1868C47.8709 17.3894 48.276 17.4906 48.7486 17.4906C48.9174 17.4906 49.0862 17.4906 49.2887 17.4569C49.4913 17.4231 49.6938 17.3894 49.8626 17.3219C50.0331 17.2611 50.1845 17.1562 50.3014 17.018C50.4167 16.862 50.4762 16.6718 50.4702 16.4779C50.4702 16.2416 50.369 16.0728 50.2339 15.9378C50.0651 15.8028 49.8963 15.7015 49.66 15.6002C49.4237 15.5327 49.1537 15.4314 48.8499 15.3639L47.9384 15.1614C47.6008 15.0939 47.297 14.9926 46.9932 14.8913C46.7048 14.7966 46.4318 14.6601 46.183 14.4862C45.9409 14.3098 45.7442 14.0784 45.6091 13.8111C45.4741 13.541 45.4066 13.2034 45.4066 12.8321C45.4066 12.3933 45.5079 12.0557 45.7104 11.7519C45.913 11.4481 46.183 11.2455 46.4868 11.043C46.8244 10.8742 47.162 10.7391 47.5671 10.6716C47.9722 10.6041 48.3435 10.5704 48.6811 10.5704C49.0862 10.5704 49.4913 10.6041 49.8288 10.7054C50.2002 10.7729 50.5377 10.9417 50.8416 11.1105C51.1454 11.313 51.3817 11.5493 51.5842 11.8531C51.7868 12.157 51.9218 12.5283 51.9556 12.9671H50.1326C50.0651 12.5621 49.8626 12.2582 49.5588 12.1232C49.2554 11.9882 48.9178 11.9207 48.546 11.9207C48.411 11.9207 48.276 11.9207 48.1072 11.9544C47.9384 11.9882 47.7696 12.0219 47.6346 12.0557C47.4996 12.1232 47.3645 12.1907 47.2633 12.292C47.209 12.3444 47.166 12.4074 47.137 12.4771C47.108 12.5468 47.0935 12.6216 47.0945 12.6971C47.0945 12.8996 47.162 13.0684 47.3308 13.2034C47.4658 13.3385 47.6684 13.4397 47.9047 13.541C48.141 13.6085 48.411 13.7098 48.7148 13.7773C49.0187 13.8448 49.3225 13.9124 49.66 13.9799C49.9639 14.0474 50.2677 14.1487 50.5715 14.2499C50.8749 14.3516 51.1449 14.4867 51.3817 14.655C51.618 14.8238 51.8205 15.0601 51.9556 15.2964C52.0906 15.5327 52.1919 15.8703 52.1919 16.2754C52.1919 16.748 52.0906 17.1193 51.8543 17.4569C51.6517 17.7945 51.3479 18.0308 51.0441 18.2333C50.7065 18.4359 50.3352 18.5709 49.8963 18.6722C49.4913 18.7734 49.0862 18.8072 48.6473 18.8072C48.141 18.8072 47.7021 18.7397 47.2633 18.6384C46.8582 18.5371 46.4868 18.3683 46.183 18.132C45.884 17.9006 45.6319 17.6141 45.4404 17.2881C45.2716 16.9505 45.1703 16.5454 45.1703 16.0728L46.9594 16.1066ZM52.6645 10.7729H53.981V8.40988H55.7026V10.7729H57.2555V12.0557H55.7026V16.2416C55.7026 16.4104 55.7026 16.5792 55.7364 16.7142C55.7364 16.8493 55.8039 16.9505 55.8377 17.0518C55.9052 17.1531 55.9727 17.2206 56.074 17.2543C56.1752 17.2881 56.344 17.3219 56.5466 17.3219H56.9179C57.0529 17.3219 57.1542 17.2881 57.2892 17.2543V18.6046C57.0867 18.6384 56.9179 18.6384 56.7154 18.6722C56.5466 18.7059 56.344 18.7059 56.1415 18.7059C55.6689 18.7059 55.3313 18.6722 55.0275 18.5709C54.7802 18.5169 54.556 18.3871 54.3861 18.1996C54.2155 18.0218 54.0985 17.7995 54.0485 17.5582C53.981 17.3219 53.9472 17.018 53.9472 16.6805V12.0894H52.6307L52.6645 10.7729ZM58.5045 10.7729H60.1586V11.8531H60.1924C60.4287 11.3805 60.7663 11.0767 61.2051 10.8742C61.6444 10.6716 62.117 10.5704 62.6229 10.5704C63.2306 10.5704 63.7707 10.6716 64.2433 10.9079C64.7159 11.1105 65.0872 11.4143 65.391 11.8194C65.6948 12.1907 65.9311 12.6633 66.0662 13.1359C66.235 13.6423 66.3025 14.1824 66.3025 14.7563C66.3025 15.2964 66.235 15.8028 66.0999 16.2754C65.9649 16.7813 65.7624 17.2201 65.4923 17.5919C65.2222 17.9632 64.8509 18.2671 64.4458 18.5034C64.007 18.7397 63.5344 18.8409 62.9267 18.8409C62.6904 18.8409 62.4204 18.8072 62.1841 18.7734C61.9276 18.7262 61.6781 18.6468 61.4414 18.5371C61.2087 18.4346 60.9926 18.2981 60.8 18.132C60.606 17.9774 60.4354 17.7955 60.2936 17.5919H60.2599V21.5078H58.5383V10.7729H58.5045ZM64.5471 14.7225C64.5471 14.385 64.5133 14.0136 64.4121 13.676C64.3259 13.3633 64.189 13.0668 64.007 12.7984C63.8382 12.5283 63.6019 12.3257 63.3318 12.1907C63.0618 12.0219 62.7579 11.9544 62.3866 11.9544C61.644 11.9544 61.1038 12.1907 60.7325 12.6971C60.3612 13.2034 60.1924 13.8786 60.1924 14.7225C60.1924 15.1276 60.2261 15.499 60.3274 15.8365C60.4287 16.1741 60.5637 16.4779 60.7663 16.7142C60.9688 16.9505 61.1713 17.1531 61.4414 17.2881C61.7115 17.4231 62.0153 17.4906 62.3866 17.4906C62.7917 17.4906 63.1293 17.4231 63.3993 17.2543C63.6694 17.0856 63.9057 16.883 64.0745 16.6129C64.2433 16.3429 64.3783 16.0728 64.4458 15.7353C64.5133 15.3977 64.5471 15.0601 64.5471 14.7225ZM67.5853 7.80225H69.3069V9.45636H67.5853V7.80225ZM67.5853 10.7729H69.3069V18.6384H67.5853V10.7729ZM70.8597 7.80225H72.5814V18.6384H70.8597V7.80225ZM77.9151 18.8409C77.2737 18.8409 76.7335 18.7397 76.2272 18.5371C75.7566 18.3459 75.3312 18.0584 74.9782 17.6932C74.6406 17.3219 74.3705 16.883 74.2017 16.3766C74.0329 15.8703 73.9317 15.2964 73.9317 14.7225C73.9317 14.1149 74.0329 13.5748 74.2017 13.0684C74.3705 12.5621 74.6406 12.1232 74.9782 11.7519C75.3157 11.3805 75.7208 11.1105 76.2272 10.9079C76.7335 10.7054 77.2737 10.6041 77.9151 10.6041C78.5564 10.6041 79.0966 10.7054 79.6029 10.9079C80.1093 11.1105 80.5144 11.4143 80.852 11.7519C81.1895 12.1232 81.4596 12.5621 81.6284 13.0684C81.7972 13.5748 81.8984 14.1149 81.8984 14.7225C81.8984 15.3302 81.7972 15.8703 81.6284 16.3766C81.4596 16.883 81.1895 17.3219 80.852 17.6932C80.5144 18.0645 80.1093 18.3346 79.6029 18.5371C79.0966 18.7397 78.5564 18.8409 77.9151 18.8409ZM77.9151 17.4906C78.2864 17.4906 78.624 17.4231 78.9278 17.2543C79.1978 17.0856 79.4341 16.883 79.6367 16.6129C79.8055 16.3429 79.9405 16.0391 80.0418 15.7353C80.1093 15.3977 80.1768 15.0601 80.1768 14.7225C80.1768 14.385 80.143 14.0474 80.0418 13.7098C79.9706 13.3918 79.8325 13.0926 79.6367 12.8321C79.4679 12.5621 79.2316 12.3595 78.9278 12.1907C78.6577 12.0219 78.3201 11.9544 77.9151 11.9544C77.5437 11.9544 77.2062 12.0219 76.9023 12.1907C76.6279 12.3582 76.3875 12.5758 76.1934 12.8321C76.0246 13.1022 75.8896 13.3722 75.7883 13.7098C75.7208 14.0474 75.6533 14.385 75.6533 14.7225C75.6533 15.0601 75.6871 15.3977 75.7883 15.7353C75.8559 16.0728 76.0246 16.3766 76.1934 16.6129C76.3622 16.883 76.5985 17.0856 76.9023 17.2543C77.2062 17.4231 77.5437 17.4906 77.9151 17.4906ZM82.371 10.7729H83.6876V8.40988H85.4092V10.7729H86.9621V12.0557H85.4092V16.2416C85.4092 16.4104 85.4092 16.5792 85.443 16.7142C85.443 16.8493 85.5105 16.9505 85.5442 17.0518C85.6118 17.1531 85.6793 17.2206 85.7805 17.2543C85.8818 17.2881 86.0506 17.3219 86.2532 17.3219H86.6245C86.7595 17.3219 86.8608 17.2881 86.9958 17.2543V18.6046C86.7933 18.6384 86.6245 18.6384 86.4219 18.6722C86.2532 18.7059 86.0506 18.7059 85.8481 18.7059C85.3755 18.7059 85.0379 18.6722 84.7341 18.5709C84.4868 18.5169 84.2626 18.3871 84.0927 18.1996C83.9221 18.0218 83.805 17.7995 83.7551 17.5582C83.6876 17.3219 83.6538 17.018 83.6538 16.6805V12.0894H82.3373L82.371 10.7729Z" fill="#191919"/>
<path d="M20.9952 7.80191H13.0622L10.6317 0.240234L8.16738 7.80191L0.234375 7.76815L6.6483 12.4267L4.184 19.9546L10.5979 15.2961L17.0118 19.9546L14.5475 12.4267L20.9952 7.80191Z" fill="#04DA8D"/>
<path d="M15.1583 14.1486L14.6181 12.427L10.6348 15.2964L15.1583 14.1486Z" fill="#005128"/>
</g>
</g>
</svg>
