<svg width="140" height="27" viewBox="0 0 140 27" fill="none" xmlns="http://www.w3.org/2000/svg">
<mask id="mask0_0_620" style="mask-type:luminance" maskUnits="userSpaceOnUse" x="0" y="0" width="140" height="27">
<path d="M0.746094 0.240723H139.006V26.1647H0.746094V0.240723Z" fill="white"/>
</mask>
<g mask="url(#mask0_0_620)">
<path d="M26.67 0.240723H0.746094V26.1647H26.67V0.240723ZM54.7547 0.240723H28.8308V26.1647H54.7547V0.240723ZM82.8381 0.240723H56.9142V26.1647H82.8381V0.240723ZM110.923 0.240723H84.9989V26.1647H110.923V0.240723Z" fill="#00B67A"/>
<path d="M139.003 0.240723H126.041V26.1647H139.003V0.240723Z" fill="#DCDCE6"/>
<path d="M139.438 0.240723H113.514V26.1647H139.438V0.240723Z" fill="#00B67A"/>
<path d="M13.7042 17.7135L17.6473 16.7129L19.2934 21.7901L13.7042 17.7135ZM22.7776 11.1509H15.8378L13.7042 4.61548L11.5707 11.1509H4.63086L10.2473 15.2015L8.11374 21.7356L13.7315 17.685L17.1871 15.2015L22.7776 11.1509ZM41.7889 17.7135L45.7307 16.7129L47.3781 21.7901L41.7889 17.7135ZM50.8623 11.1509H43.9212L41.7889 4.61548L39.6554 11.1509H32.7155L38.332 15.2015L36.1984 21.7356L41.8161 17.685L45.2718 15.2015L50.8623 11.1509ZM69.8723 17.7135L73.8153 16.7129L75.4615 21.7901L69.8723 17.7135ZM78.9457 11.1509H72.0071L69.8736 4.61548L67.7414 11.1509H60.8002L66.4179 15.2015L64.2844 21.7356L69.9008 17.685L73.3578 15.2015L78.9457 11.1509ZM97.957 17.7135L101.9 16.7129L103.546 21.7901L97.957 17.7135ZM107.03 11.1509H100.091L97.957 4.61548L95.8235 11.1509H88.8836L94.5 15.2015L92.3678 21.7356L97.9842 17.685L101.44 15.2015L107.03 11.1509ZM126.042 17.7135L129.983 16.7129L131.631 21.7901L126.042 17.7135ZM135.115 11.1509H128.174L126.042 4.61548L123.908 11.1509H116.968L122.585 15.2015L120.451 21.7356L126.069 17.685L129.525 15.2015L135.115 11.1509Z" fill="white"/>
</g>
</svg>
