<svg width="351" height="359" viewBox="0 0 351 359" fill="none" xmlns="http://www.w3.org/2000/svg">
<g clip-path="url(#clip0_1241_4771)">
<path d="M178.043 0C273.503 0 350.883 77.3793 350.883 172.84C350.883 225.209 327.551 272.115 290.753 303.811L300.095 341.326C300.78 344.098 297.715 346.283 295.318 344.718L262.824 323.441C237.765 337.576 208.858 345.68 178.043 345.68C82.5824 345.68 5.20312 268.3 5.20312 172.84C5.20312 77.3793 82.5987 0 178.043 0Z" fill="#CC335E"/>
<path d="M178.041 9.96094L156.292 35.4606L127.711 17.9336L114.912 48.9114L82.32 41.0692L79.695 74.4926L46.2879 77.1012L54.1302 109.693L23.1524 122.508L40.6793 151.073L15.1797 172.839L40.6793 194.589L23.1524 223.17L54.1302 235.985L46.2879 268.577L79.695 271.185L82.32 304.609L114.912 296.766L127.711 327.744L156.292 310.201L178.041 335.701L199.807 310.201L228.372 327.744L241.187 296.766L273.779 304.609L276.388 271.185L309.811 268.577L301.969 235.985L332.947 223.17L315.42 194.589L340.919 172.839L315.42 151.073L332.947 122.508L301.969 109.693L309.811 77.1012L276.388 74.4926L273.779 41.0692L241.187 48.9114L228.372 17.9336L199.807 35.4606L178.041 9.96094Z" fill="#D84468"/>
<path d="M315.701 127.368C317.935 125.314 320.152 123.276 322.386 121.221C323.625 120.08 325.793 120.439 326.674 121.498C327.717 122.77 327.179 124.368 325.924 125.509L319.239 131.656C318 132.797 315.831 132.439 314.951 131.379C313.908 130.107 314.446 128.509 315.701 127.368Z" fill="white"/>
<path d="M318.947 137.297C322.126 136.221 325.338 135.308 328.583 134.574C332.496 133.693 332.969 139.302 329.056 140.183C326.349 140.786 323.675 141.519 321.034 142.432C317.235 143.721 315.116 138.601 318.947 137.297Z" fill="white"/>
<path d="M317.753 147.698C318.519 146.117 320.28 145.595 321.845 145.954C324.454 146.541 327.111 146.948 329.802 147.209C333.666 147.601 332.557 153.274 328.677 152.883C325.465 152.557 322.318 152.019 319.22 151.318C317.655 150.959 317.101 149.035 317.753 147.698Z" fill="white"/>
<path d="M35.8379 207.795C32.9521 207.371 30.05 206.947 27.1641 206.523C25.55 206.279 23.9033 207.844 23.6751 209.263C23.4142 210.942 24.6696 211.985 26.2837 212.214L34.9575 213.485C36.5716 213.73 38.2183 212.165 38.4466 210.746C38.7074 209.067 37.452 208.023 35.8379 207.795Z" fill="white"/>
<path d="M38.0028 218.068C34.7909 219.013 31.6279 220.122 28.5302 221.41C24.7965 222.959 27.1606 227.964 30.9106 226.415C33.5029 225.339 36.1116 224.41 38.7854 223.611C42.6332 222.486 41.8832 216.926 38.0028 218.068Z" fill="white"/>
<path d="M44.9827 227.915C43.5479 227.034 41.8197 227.621 40.6621 228.828C38.7545 230.85 36.7165 232.741 34.5807 234.534C31.5155 237.127 35.2491 241.268 38.3306 238.659C40.8741 236.507 43.2708 234.225 45.537 231.812C46.6783 230.589 46.2055 228.649 44.9827 227.899V227.915Z" fill="white"/>
</g>
<defs>
<clipPath id="clip0_1241_4771">
<rect width="350.766" height="359" fill="white" transform="translate(0.117188)"/>
</clipPath>
</defs>
</svg>
