<svg width="290" height="289" viewBox="0 0 290 289" fill="none" xmlns="http://www.w3.org/2000/svg">
<path d="M32.2534 7.49185L35.9288 4.24016L39.6042 0.988471M35.8168 7.70979L43.1675 1.20642M39.8193 7.9546L47.17 1.45122M43.8218 8.1994L51.1726 1.69602M47.8343 8.44482L55.1851 1.94144M51.8369 8.68962L59.1876 2.18624M55.8394 8.93443L63.1901 2.43105M59.8419 9.17923L67.1926 2.67585M63.8444 9.42404L71.1952 2.92066M67.8569 9.66945L75.2077 3.16607M71.8594 9.91426L79.2102 3.41088M75.862 10.1591L83.2127 3.65568M79.8645 10.4039L87.2152 3.90049M83.877 10.6493L91.2277 4.1459M87.8795 10.8941L95.2302 4.39071M91.882 11.1389L99.2328 4.63551M95.8846 11.3837L103.235 4.88032M99.8871 11.6285L107.238 5.12512M103.9 11.8739L111.25 5.37054M107.902 12.1187L115.253 5.61534M111.905 12.3635L119.255 5.86015M115.907 12.6083L123.258 6.10495M119.91 12.8531L127.26 6.34976M123.922 13.0985L131.273 6.59517M127.925 13.3434L135.275 6.83998M131.927 13.5882L139.278 7.08478M135.93 13.833L143.28 7.32958M139.932 14.0778L147.283 7.57439M143.945 14.3232L151.295 7.8198M147.947 14.568L155.298 8.06461M151.95 14.8128L159.301 8.30941M155.952 15.0576L163.303 8.55422M159.955 15.3024L167.306 8.79902M163.967 15.5478L171.318 9.04444M167.97 15.7926L175.321 9.28924M171.972 16.0374L179.323 9.53405M175.975 16.2822L183.326 9.77885M179.977 16.527L187.328 10.0237M183.99 16.7724L191.341 10.2691M187.992 17.0173L195.343 10.5139M191.995 17.2621L199.346 10.7587M195.997 17.5069L203.348 11.0035M200 17.7517L207.351 11.2483M204.012 17.9971L211.363 11.4937M208.015 18.2419L215.366 11.7385M212.018 18.4867L219.368 11.9833M216.02 18.7315L223.371 12.2281M220.023 18.9763L227.373 12.4729M224.035 19.2217L231.386 12.7183M228.038 19.4665L235.388 12.9631M232.04 19.7113L239.391 13.2079M236.043 19.9561L243.393 13.4528M240.045 20.2009L247.396 13.6976M244.058 20.4464L251.408 13.943M248.06 20.6912L255.411 14.1878M252.063 20.936L259.413 14.4326M256.065 21.1808L263.416 14.6774M260.068 21.4256L267.418 14.9222M264.08 21.671L271.431 15.1676M268.083 21.9158L275.69 15.4782M272.085 22.1606L280.641 17.0835M275.461 22.4973L284.739 20.1994M278.039 23.5967L287.591 24.5016M280.147 25.489L288.887 29.5201M281.518 27.9673L288.775 33.9715M281.991 30.8816L288.521 37.9734M281.772 34.6252L288.276 41.976M281.528 38.6277L288.031 45.9785M281.283 42.6303L287.786 49.981M281.038 46.6328L287.541 53.9835M280.793 50.6453L287.296 57.996M280.548 54.6478L287.051 61.9985M280.303 58.6503L286.806 66.0011M280.058 62.6529L286.562 70.0036M279.813 66.6554L286.317 74.0061M279.568 70.6679L286.071 78.0186M279.323 74.6704L285.827 82.0211M279.078 78.6729L285.582 86.0236M278.834 82.6754L285.337 90.0262M278.589 86.678L285.092 94.0287M278.343 90.6905L284.847 98.0412M278.099 94.693L284.602 102.044M277.854 98.6955L284.357 106.046M277.609 102.698L284.112 110.049M277.364 106.701L283.867 114.051M277.119 110.713L283.622 118.064M276.874 114.716L283.377 122.066M276.629 118.718L283.132 126.069M276.384 122.721L282.888 130.071M276.139 126.723L282.643 134.074M275.894 130.736L282.397 138.086M275.649 134.738L282.153 142.089M275.404 138.741L281.908 146.091M275.16 142.743L281.663 150.094M274.915 146.746L281.418 154.096M274.669 150.758L281.173 158.109M274.425 154.761L280.928 162.111M274.18 158.763L280.683 166.114M273.935 162.766L280.438 170.117M273.69 166.768L280.194 174.119M273.445 170.781L279.948 178.132M273.2 174.783L279.703 182.134M272.955 178.786L279.459 186.137M272.71 182.788L279.214 190.139M272.466 186.791L278.969 194.142M272.22 190.803L278.724 198.154M271.975 194.806L278.479 202.157M271.731 198.808L278.234 206.159M271.486 202.811L277.989 210.162M271.241 206.813L277.744 214.164M270.996 210.826L277.499 218.177M270.751 214.828L277.254 222.179M270.506 218.831L277.009 226.182M270.261 222.834L276.764 230.184M270.016 226.836L276.52 234.187M269.771 230.849L276.274 238.199M269.526 234.851L276.029 242.202M269.281 238.854L275.785 246.204M269.036 242.856L275.54 250.207M268.791 246.869L275.294 254.219M268.546 250.871L275.05 258.222M268.301 254.874L274.805 262.224M268.057 258.876L274.56 266.227M267.812 262.879L274.315 270.229M267.566 266.891L274.054 274.331M267.322 270.894L272.764 279.372M267.054 274.454L269.897 283.655M266.071 277.249L265.935 286.689M264.284 279.444L261.025 288.332M261.878 280.94L256.242 288.4M259.156 281.555L252.24 288.155M255.589 281.397L248.238 287.9M251.576 281.152L244.225 287.655M247.573 280.907L240.223 287.41M243.571 280.662L236.22 287.165M239.568 280.417L232.218 286.921M235.566 280.172L228.215 286.676M231.553 279.927L224.203 286.43M227.551 279.682L220.2 286.186M223.548 279.437L216.198 285.941M219.546 279.193L212.195 285.696M215.543 278.948L208.193 285.451M211.531 278.702L204.18 285.206M207.528 278.458L200.178 284.961M203.526 278.213L196.175 284.716M199.523 277.968L192.173 284.471M195.521 277.723L188.17 284.227M191.508 277.478L184.158 283.981M187.506 277.233L180.155 283.736M183.503 276.988L176.152 283.491M179.501 276.743L172.15 283.247M175.498 276.498L168.147 283.002M171.486 276.253L164.135 282.756M167.483 276.008L160.132 282.512M163.481 275.763L156.13 282.267M159.478 275.519L152.127 282.022M155.476 275.274L148.125 281.777M151.463 275.028L144.112 281.532M147.461 274.784L140.11 281.287M143.458 274.539L136.107 281.042M139.456 274.294L132.105 280.797M135.453 274.049L128.102 280.553M131.44 273.804L124.09 280.307M127.438 273.559L120.087 280.062M123.435 273.314L116.085 279.818M119.433 273.069L112.082 279.573M115.43 272.825L108.08 279.328M111.418 272.579L104.067 279.083M107.415 272.334L100.065 278.838M103.413 272.09L96.0621 278.593M99.4104 271.845L92.0596 278.348M95.4078 271.6L88.0571 278.103M91.3953 271.355L84.0446 277.858M87.3928 271.11L80.0421 277.613M83.3903 270.865L76.0396 277.368M79.3878 270.62L72.037 277.124M75.3853 270.375L68.0345 276.879M71.3728 270.13L64.022 276.633M67.3702 269.885L60.0195 276.388M63.3677 269.64L56.017 276.144M59.3652 269.395L52.0145 275.899M55.3627 269.151L48.0119 275.654M51.3502 268.905L43.9994 275.409M47.3476 268.66L39.9969 275.164M43.3451 268.416L35.9944 274.919M39.3426 268.171L31.9919 274.674M35.3401 267.926L27.9893 274.429M31.3276 267.681L23.9768 274.184M27.3251 267.436L19.9743 273.939M23.3225 267.191L15.9718 273.694M19.32 266.946L11.0821 272.884M15.3973 266.706L6.64581 270.559M12.5345 266.01L3.10772 266.816M10.1739 264.473L0.980591 262.118M8.42747 262.232L0.511563 257.009M7.52817 259.573L0.766348 253.008M7.51453 256.356L1.01115 249.005M7.75934 252.353L1.25596 245.002M8.00475 248.341L1.50137 240.99M8.24956 244.338L1.74618 236.987M8.49436 240.336L1.99098 232.985M8.73916 236.333L2.23579 228.982M8.98397 232.331L2.48059 224.98M9.22939 228.318L2.72601 220.967M9.47419 224.316L2.97081 216.965M9.71899 220.313L3.21562 212.962M9.9638 216.311L3.46042 208.96M10.2086 212.308L3.70523 204.957M10.454 208.296L3.95064 200.945M10.6988 204.293L4.19544 196.942M10.9436 200.291L4.44025 192.94M11.1884 196.288L4.68505 188.937M11.4332 192.285L4.92986 184.935M11.6787 188.273L5.17527 180.922M11.9235 184.27L5.42008 176.92M12.1683 180.268L5.66488 172.917M12.4131 176.265L5.90969 168.915M12.6579 172.263L6.15449 164.912M12.9033 168.25L6.39991 160.9M13.1481 164.248L6.64471 156.897M13.3929 160.245L6.88952 152.895M13.6377 156.243L7.13432 148.892M13.8825 152.24L7.37913 144.89M14.1279 148.228L7.62454 140.877M14.3727 144.225L7.86935 136.875M14.6175 140.223L8.11415 132.872M14.8623 136.22L8.35896 128.87M15.1071 132.218L8.60376 124.867M15.3526 128.205L8.84917 120.855M15.5974 124.203L9.09398 116.852M15.8422 120.2L9.33878 112.849M16.087 116.198L9.58359 108.847M16.3324 112.185L9.829 104.834M16.5772 108.183L10.0738 100.832M16.822 104.18L10.3186 96.8294M17.0668 100.178L10.5634 92.8269M17.3116 96.1751L10.8082 88.8244M17.557 92.1626L11.0536 84.8119M17.8018 88.1601L11.2984 80.8093M18.0466 84.1575L11.5432 76.8068M18.2914 80.155L11.7881 72.8043M18.5362 76.1525L12.0329 68.8018M18.7817 72.14L12.2783 64.7893M19.0265 68.1375L12.5231 60.7867M19.2713 64.135L12.7679 56.7842M19.5161 60.1324L13.0127 52.7817M19.7609 56.1299L13.2575 48.7792M20.0063 52.1174L13.5029 44.7667M20.2511 48.1149L13.7477 40.7642M20.4959 44.1124L13.9925 36.7616M20.7407 40.1099L14.2373 32.7591M20.9855 36.1073L14.4827 28.7466M21.2309 32.0948L14.7275 24.7441M21.4757 28.0923L14.9723 20.7416M21.7205 24.0898L15.2171 16.7391M21.9653 20.0873L15.7681 12.1541M22.2101 16.0847L17.8614 7.41309M22.7339 13.0911L21.3876 3.65135M24.0967 10.6297L25.943 1.24496M26.2163 8.73561L31.0895 0.47771M28.7899 7.28001L32.4653 4.02832L36.1406 0.776633" stroke="#22B5F0" stroke-width="1.5"/>
</svg>
