<svg width="307" height="331" viewBox="0 0 307 331" fill="none" xmlns="http://www.w3.org/2000/svg">
<path d="M153.391 326.399C157.301 322.429 165.171 321.969 169.551 325.449C174.121 328.789 182.351 327.329 185.481 322.629C188.381 317.859 195.931 315.579 200.971 317.959C206.211 320.139 213.831 316.839 215.821 311.529C217.541 306.229 224.381 302.289 229.851 303.459C235.421 304.429 242.141 299.499 242.901 293.889C243.441 288.319 249.251 283.019 254.851 282.969C260.511 282.719 266.011 276.529 265.601 270.869C264.961 265.329 269.591 258.899 275.051 257.729C280.531 256.349 284.701 249.149 283.151 243.719C281.431 238.399 284.701 231.199 289.831 228.979C294.941 226.559 297.611 218.729 295.061 213.659C292.361 208.739 294.181 201.089 298.801 197.909C303.361 194.539 304.501 186.339 301.041 181.879C297.461 177.589 297.831 169.689 301.781 165.709C305.641 161.589 305.261 153.319 301.041 149.539C296.731 145.949 295.641 138.109 298.801 133.509C301.831 128.749 299.911 120.649 295.061 117.759C290.171 115.069 287.611 107.579 289.831 102.439C291.891 97.169 288.481 89.629 283.151 87.699C277.811 85.979 273.881 79.159 275.051 73.689C276.041 68.109 271.211 61.389 265.601 60.549C260.051 59.949 254.801 54.039 254.851 48.449C254.701 42.799 248.551 37.179 242.901 37.529C237.331 38.089 231.001 33.439 229.851 27.959C228.481 22.459 221.291 18.319 215.821 19.889C210.531 21.669 203.291 18.529 200.971 13.449C198.371 8.39903 190.421 5.99903 185.481 8.77903C180.711 11.719 173.001 10.359 169.551 5.95903C165.871 1.64903 157.581 1.16903 153.391 5.00903C149.481 8.97903 141.611 9.43903 137.231 5.95903C132.661 2.61903 124.431 4.07903 121.301 8.77903C118.401 13.549 110.851 15.829 105.811 13.449C100.571 11.269 92.9505 14.569 90.9605 19.889C89.2405 25.189 82.4005 29.129 76.9305 27.959C71.3605 26.989 64.6405 31.919 63.8805 37.529C63.3405 43.099 57.5305 48.399 51.9305 48.449C46.2705 48.699 40.7705 54.889 41.1805 60.549C41.8205 66.099 37.1905 72.519 31.7205 73.689C26.2405 75.069 22.0705 82.269 23.6205 87.699C25.3405 93.019 22.0705 100.219 16.9405 102.439C11.8305 104.859 9.16051 112.699 11.7105 117.759C14.4105 122.679 12.5905 130.329 7.97051 133.509C3.41051 136.879 2.26051 145.079 5.73051 149.539C9.31051 153.829 8.94051 161.729 4.99051 165.709C1.13051 169.829 1.50051 178.099 5.73051 181.879C10.0405 185.469 11.1305 193.309 7.97051 197.909C4.94051 202.669 6.86051 210.769 11.7105 213.659C16.6005 216.349 19.1605 223.839 16.9405 228.979C14.8805 234.249 18.2905 241.789 23.6205 243.719C28.9505 245.439 32.8905 252.259 31.7205 257.729C30.7305 263.309 35.5605 270.029 41.1805 270.869C46.7305 271.469 51.9805 277.379 51.9305 282.969C52.0805 288.619 58.2305 294.239 63.8805 293.889C69.4505 293.329 75.7805 297.979 76.9305 303.459C78.3005 308.959 85.4905 313.099 90.9605 311.529C96.2505 309.749 103.491 312.889 105.811 317.959C108.411 323.009 116.361 325.409 121.301 322.629C126.071 319.689 133.781 321.059 137.231 325.449C140.911 329.759 149.201 330.239 153.391 326.399Z" stroke="#22B5F0" stroke-width="4"/>
</svg>
